<svg width="69" height="69" viewBox="0 0 69 69" fill="none" xmlns="http://www.w3.org/2000/svg">
<path d="M6.27269 0.000976562H62.7258C66.1901 0.000976562 68.9985 2.8094 68.9985 6.27366V56.4552C68.9985 59.9194 66.1901 62.7279 62.7258 62.7279H6.27269C2.80843 62.7279 0 59.9194 0 56.4552V6.27366C0 2.8094 2.80843 0.000976562 6.27269 0.000976562Z" fill="#F0EAF9"/>
<path d="M3.13627 12.5463H65.8623C67.5944 12.5463 68.9985 13.9504 68.9985 15.6825V15.6827C68.9985 17.4148 67.5944 18.819 65.8623 18.819H3.13627C1.40414 18.819 0 17.4148 0 15.6827V15.6825C0 13.9504 1.40414 12.5463 3.13627 12.5463Z" fill="#E1D5F3"/>
<path d="M6.27269 0.000976562H62.7264C66.1907 0.000976562 68.9991 2.8094 68.9991 6.27366V15.6826H0V6.27366C0 2.8094 2.80843 0.000976562 6.27269 0.000976562Z" fill="#5628B4"/>
<path d="M6.27274 0.000427246H62.7271C64.4592 0.000427246 65.8633 1.40457 65.8633 3.1367V3.13684C65.8633 4.86897 64.4592 6.27311 62.7271 6.27311H6.27274C4.54061 6.27311 3.13647 4.86897 3.13647 3.13684V3.1367C3.13647 1.40457 4.54061 0.000427246 6.27274 0.000427246Z" fill="#6F48BF"/>
<path d="M4.70468 12.5463H64.2951C65.1612 12.5463 65.8633 13.2484 65.8633 14.1145C65.8633 14.9805 65.1612 15.6827 64.2951 15.6827H4.70468C3.83862 15.6827 3.13647 14.9805 3.13647 14.1145C3.13647 13.2484 3.83862 12.5463 4.70468 12.5463Z" fill="#421198"/>
<path d="M67.4308 21.9548C66.5648 21.9548 65.8626 22.6568 65.8626 23.5228C65.8626 23.5228 65.8626 23.5228 65.8626 23.523V56.4543C65.8626 58.1865 64.4585 59.5906 62.7264 59.5906H45.4767C44.6106 59.5906 43.9084 60.2928 43.9084 61.1588C43.9084 62.0249 44.6106 62.727 45.4767 62.727H62.7264C66.1906 62.727 68.9989 59.9186 68.9991 56.4543V23.523C68.9991 22.6568 68.2969 21.9548 67.4308 21.9548Z" fill="#D9C9EF"/>
<path d="M1.56821 28.2269C2.43427 28.2269 3.13642 28.929 3.13642 29.7951V54.8855C3.13642 55.7516 2.43427 56.4537 1.56821 56.4537C0.702143 56.4537 0 55.7516 0 54.8855V29.7951C0 28.929 0.702143 28.2269 1.56821 28.2269Z" fill="#DFD2F2"/>
<path d="M7.8414 9.40998C8.7075 9.40998 9.40961 8.70787 9.40961 7.84177C9.40961 6.97567 8.7075 6.27356 7.8414 6.27356C6.9753 6.27356 6.27319 6.97567 6.27319 7.84177C6.27319 8.70787 6.9753 9.40998 7.8414 9.40998Z" fill="#F7B236"/>
<path d="M14.1131 9.40998C14.9792 9.40998 15.6813 8.70787 15.6813 7.84177C15.6813 6.97567 14.9792 6.27356 14.1131 6.27356C13.247 6.27356 12.5449 6.97567 12.5449 7.84177C12.5449 8.70787 13.247 9.40998 14.1131 9.40998Z" fill="#B39DDD"/>
<path d="M20.3861 9.40998C21.2522 9.40998 21.9543 8.70787 21.9543 7.84177C21.9543 6.97567 21.2522 6.27356 20.3861 6.27356C19.52 6.27356 18.8179 6.97567 18.8179 7.84177C18.8179 8.70787 19.52 9.40998 20.3861 9.40998Z" fill="#D80E70"/>
<path d="M59.5901 43.9089H28.2268C26.4947 43.9089 25.0906 42.5048 25.0906 40.7727V25.0915C25.0906 23.3593 26.4947 21.9552 28.2268 21.9552H59.5901C61.3223 21.9552 62.7264 23.3593 62.7264 25.0915V40.7727C62.7264 42.5048 61.3223 43.9089 59.5901 43.9089Z" fill="#B39DDD"/>
<path d="M15.6812 34.5H9.40898C7.67685 34.5 6.27271 33.0959 6.27271 31.3637V25.0915C6.27271 23.3593 7.67685 21.9552 9.40898 21.9552H15.6812C17.4134 21.9552 18.8175 23.3593 18.8175 25.0915V31.3637C18.8175 33.0959 17.4134 34.5 15.6812 34.5Z" fill="#B39DDD"/>
<path d="M15.6812 56.4538H9.40898C7.67685 56.4538 6.27271 55.0496 6.27271 53.3175V47.0453C6.27271 45.3131 7.67685 43.909 9.40898 43.909H15.6812C17.4134 43.909 18.8175 45.3131 18.8175 47.0453V53.3175C18.8175 55.0496 17.4134 56.4538 15.6812 56.4538Z" fill="#B39DDD"/>
<path d="M26.6588 47.0447H36.0672C36.9332 47.0447 37.6354 47.7469 37.6354 48.6129C37.6354 49.479 36.9332 50.1812 36.0672 50.1812H26.6588C25.7927 50.1812 25.0906 49.479 25.0906 48.6129C25.0906 47.7469 25.7927 47.0447 26.6588 47.0447Z" fill="#B39DDD"/>
<path d="M58.0216 47.0447H61.1578C62.0239 47.0447 62.7261 47.7469 62.7261 48.6129C62.7261 49.479 62.0239 50.1812 61.1578 50.1812H58.0216C57.1555 50.1812 56.4534 49.479 56.4534 48.6129C56.4534 47.7469 57.1555 47.0447 58.0216 47.0447Z" fill="#B39DDD"/>
<path d="M42.3409 47.0447H51.7493C52.6153 47.0447 53.3175 47.7469 53.3175 48.6129C53.3175 49.479 52.6153 50.1812 51.7493 50.1812H42.3409C41.4748 50.1812 40.7727 49.479 40.7727 48.6129C40.7727 47.7469 41.4748 47.0447 42.3409 47.0447Z" fill="#B39DDD"/>
<path d="M26.6588 53.3179H39.2045C40.0705 53.3179 40.7727 54.0201 40.7727 54.8861C40.7727 55.7522 40.0705 56.4543 39.2045 56.4543H26.6588C25.7927 56.4543 25.0906 55.7522 25.0906 54.8861C25.0906 54.0201 25.7927 53.3179 26.6588 53.3179Z" fill="#B39DDD"/>
<path d="M45.4767 53.3179H48.6129C49.479 53.3179 50.1811 54.0201 50.1811 54.8861C50.1811 55.7522 49.479 56.4543 48.6129 56.4543H45.4767C44.6106 56.4543 43.9084 55.7522 43.9084 54.8861C43.9084 54.0201 44.6106 53.3179 45.4767 53.3179Z" fill="#B39DDD"/>
<path d="M17.2493 40.7731H7.84091C6.97485 40.7731 6.27271 40.071 6.27271 39.2049C6.27271 38.3389 6.97485 37.6367 7.84091 37.6367H17.2493C18.1153 37.6367 18.8175 38.3389 18.8175 39.2049C18.8175 40.071 18.1153 40.7731 17.2493 40.7731Z" fill="#B39DDD"/>
<path d="M34.4995 47.0453H31.3636C22.7029 47.0453 15.6819 54.0661 15.6819 62.7269C15.6819 62.7271 15.6819 62.7271 15.6819 62.7272V62.8103C15.6931 64.5235 14.181 65.8634 12.4679 65.8634H10.9771C10.1111 65.8634 9.40894 66.5655 9.40894 67.4316C9.40894 68.2976 10.1111 68.9998 10.9771 68.9998H21.9543C30.615 68.9996 37.6358 61.9786 37.6358 53.318V47.0453H34.4995Z" fill="#F7B236"/>
<path d="M37.6358 53.318V47.0453H34.4995C34.4995 55.7059 27.4787 62.7269 18.8179 62.7269H15.6821V62.8101C15.6932 64.5232 14.181 65.8632 12.468 65.8632H10.9771C10.1111 65.8632 9.40894 66.5654 9.40894 67.4314C9.40894 68.2975 10.1111 68.9996 10.9771 68.9996H21.9543C30.615 68.9995 37.6358 61.9786 37.6358 53.318Z" fill="#F58B04"/>
<path d="M67.9479 16.7332C66.9868 15.7722 65.5652 15.4365 64.2759 15.8664C53.222 19.7721 44.115 27.8146 38.872 38.3004L37.6357 40.7727V47.0453H43.9084L46.3806 45.8092C56.8665 40.5662 64.9089 31.4591 68.8147 20.4053C69.2445 19.1157 68.9089 17.6942 67.9479 16.7332Z" fill="#D80E70"/>
<path d="M56.0809 25.4657C54.8561 24.2409 51.2217 25.8896 47.9631 29.1481C44.7046 32.4067 43.0559 36.0411 44.2806 37.2659C45.5054 38.4907 49.1399 36.842 52.3984 33.5834C55.657 30.3249 57.3057 26.6904 56.0809 25.4657Z" fill="#E976AF"/>
<path d="M64.2757 15.8663C63.7328 16.0582 63.2175 16.3053 62.6842 16.5167C62.2757 30.5788 51.6098 42.2108 37.6357 43.834V47.0454H43.9084L46.3806 45.8092C56.8665 40.5662 64.9089 31.459 68.8148 20.4053C69.4414 18.5251 68.4251 16.4929 66.5449 15.8663C65.8084 15.6208 65.0123 15.6208 64.2757 15.8663Z" fill="#A60068"/>
<path d="M34.4995 47.0452L37.6358 50.1817L43.9085 47.0452L37.6358 40.7727L34.4995 47.0452Z" fill="#5628B4"/>
<path d="M36.1951 48.7406L37.636 50.1815L43.9087 47.0453L40.8996 44.0361C39.6004 42.737 37.4943 42.737 36.1951 44.0361C35.9423 44.289 35.7319 44.5808 35.5719 44.9007C34.9317 46.1815 35.1826 47.7283 36.1951 48.7406Z" fill="#420F9B"/>
<path d="M28.0293 50.5226C27.0753 49.5686 24.3267 50.7705 21.8901 53.207C19.4535 55.6436 18.2517 58.3922 19.2057 59.3463C20.1597 60.3003 22.9083 59.0984 25.3449 56.6619C27.7815 54.2253 28.9834 51.4767 28.0293 50.5226Z" fill="#FBDA9E"/>
</svg>
