<svg width="534" height="798" viewBox="0 0 534 798" fill="none" xmlns="http://www.w3.org/2000/svg">
<g clip-path="url(#clip0_907_56)">
<path fill-rule="evenodd" clip-rule="evenodd" d="M335.693 208.284L331.2 127.088L319.107 125.195L295.785 202.038L335.693 208.284Z" fill="#D7AC84"/>
<path fill-rule="evenodd" clip-rule="evenodd" d="M282.426 159.3C294.376 164.476 345.984 147.261 349.076 111.094C352.169 74.9263 301.401 75.0431 288.944 91.5919C276.487 108.141 270.476 154.123 282.426 159.3Z" fill="#D7AC84"/>
<path fill-rule="evenodd" clip-rule="evenodd" d="M333.82 150.294C342.329 128.675 358.985 115.636 358.37 105.282C357.96 98.3786 354.736 93.6211 348.698 91.0092C347.512 77.265 337.895 69.9929 319.85 69.193C292.782 67.9933 274.808 76.5594 278.002 102.099C284.449 103.108 292.597 101.982 302.73 107.682C305.945 109.49 307.77 113.823 308.204 120.682L313.067 121.443C319.015 114.316 324.12 112.154 328.382 114.956C332.644 117.759 332.895 122.987 329.137 130.638L328.647 149.485L333.82 150.294Z" fill="#101030"/>
<path fill-rule="evenodd" clip-rule="evenodd" d="M374.402 301.112L315.834 538.212L277.793 735.154L258.435 741.07L295.874 325.11L374.402 301.112Z" fill="#D2A885"/>
<path fill-rule="evenodd" clip-rule="evenodd" d="M285.306 733.124C287.278 738.247 288.27 742.07 288.28 744.596C288.293 747.615 287.805 752.022 286.817 757.818C283.292 757.832 251.613 757.956 191.78 758.192C189.276 750.089 190.684 745.704 196.002 745.037C201.32 744.369 205.738 743.767 209.255 743.232L253.471 723.437C254.256 723.086 255.177 723.437 255.529 724.222C255.534 724.234 255.539 724.245 255.543 724.256L258.461 731.207C263.397 733.472 267.404 734.597 270.484 734.585C273.033 734.575 276.567 733.52 281.085 731.418L281.085 731.418C282.645 730.693 284.498 731.369 285.223 732.929C285.253 732.993 285.281 733.058 285.306 733.124Z" fill="#E4E4E4"/>
<path fill-rule="evenodd" clip-rule="evenodd" d="M294.456 700.388L253.668 700.501C255.065 646.595 258.651 586.646 264.424 520.657C270.197 454.667 278.355 390.196 288.896 327.241L394.34 295.018C385.179 373.377 372.266 445.979 355.599 512.823C338.932 579.668 318.552 642.19 294.456 700.388Z" fill="#FC9F3F"/>
<path fill-rule="evenodd" clip-rule="evenodd" d="M378.969 353.757C374.662 428.248 376.681 525.079 378.159 528.38C379.144 530.581 425.886 558.64 518.384 612.558L510.27 629.052C395.344 585.718 335.728 558.619 331.422 547.757C324.963 531.464 301.8 408.897 298.438 335.981L378.969 353.757Z" fill="#D7AC84"/>
<path fill-rule="evenodd" clip-rule="evenodd" d="M480.704 588.755L465.715 614.476C375.901 598.254 323.67 578.038 309.02 553.828C294.371 529.618 290.992 453.136 298.885 324.382L400.321 352.041C389.17 456.195 383.971 510.624 384.724 515.329C385.476 520.034 417.47 544.509 480.704 588.755Z" fill="#FFC080"/>
<path fill-rule="evenodd" clip-rule="evenodd" d="M510.688 600.738C515.844 598.859 519.684 597.937 522.209 597.973C525.227 598.015 529.625 598.583 535.402 599.676C535.353 603.2 534.916 634.871 534.091 694.689C525.946 697.045 521.587 695.558 521.014 690.229C520.441 684.901 519.918 680.474 519.445 676.948L500.44 632.387C500.102 631.596 500.47 630.681 501.261 630.344C501.272 630.339 501.284 630.334 501.295 630.33L508.296 627.539C510.647 622.646 511.844 618.66 511.886 615.582C511.921 613.033 510.928 609.481 508.908 604.926L508.908 604.926C508.21 603.354 508.919 601.514 510.491 600.817C510.556 600.788 510.621 600.762 510.688 600.738Z" fill="#E4E4E4"/>
<path fill-rule="evenodd" clip-rule="evenodd" d="M214.407 274.424L147.861 265.485C134.538 258.119 122.284 253.138 111.101 250.542C107.956 250.456 102.954 251.607 110.422 257.798C117.889 263.989 125.467 270.839 124.146 274.152C122.825 277.466 115.889 276.247 114.752 281.342C113.993 284.739 125.245 285.27 148.508 282.935L202.534 304.204L214.407 274.424Z" fill="#D2A885"/>
<path fill-rule="evenodd" clip-rule="evenodd" d="M322.185 173.514L293.301 175.491C286.297 239.482 247.615 279.978 160.83 266.489L149.445 348.901C230.555 359.139 301.617 326.712 316.042 239.308C319.776 216.682 322.715 193.137 322.185 173.514Z" fill="#AFB9C5"/>
<path fill-rule="evenodd" clip-rule="evenodd" d="M423.443 289.406C452.425 375.163 468.568 421.372 471.874 428.033C474.298 432.918 492.194 447.74 504.609 456.204C509.592 459.601 507.541 463.965 505.665 465.126C490.398 474.571 480.31 463.454 467.066 457.333C452.556 450.626 453.82 469.636 442.318 464.524C445.83 456.622 454.05 441.914 450.131 432.275C448.389 427.99 427.195 380.436 386.548 289.612L423.443 289.406Z" fill="#D7AC84"/>
<path fill-rule="evenodd" clip-rule="evenodd" d="M389.815 352.646L256.709 352.889C268.892 297.606 292.771 249.609 292.613 174.448L336.477 164.333C368.134 212.797 383.415 272.508 389.815 352.646Z" fill="#C5CFD6"/>
<path fill-rule="evenodd" clip-rule="evenodd" d="M389.819 352.642L350.895 352.713C360.077 315.857 359.772 255.861 349.979 172.723C378.053 221.191 384.126 272.506 389.819 352.642Z" fill="black" fill-opacity="0.1"/>
<path fill-rule="evenodd" clip-rule="evenodd" d="M339.257 164.327C403.987 222.521 446.493 304.872 466.774 411.38L378.267 411.542C375.706 321.833 363.467 242.665 328.071 174.061L336.39 164.332L339.257 164.327Z" fill="#C5CFD6"/>
</g>
<defs>
<clipPath id="clip0_907_56">
<rect width="534" height="798" fill="white"/>
</clipPath>
</defs>
</svg>
