<svg width="476" height="713" viewBox="0 0 476 713" fill="none" xmlns="http://www.w3.org/2000/svg">
<path fill-rule="evenodd" clip-rule="evenodd" d="M280.624 146.258L276.131 65.0624L264.038 63.1696L240.716 140.012L280.624 146.258Z" fill="#D7AC84"/>
<path fill-rule="evenodd" clip-rule="evenodd" d="M227.357 97.2739C239.307 102.45 290.915 85.2357 294.007 49.0681C297.099 12.9006 246.332 13.0173 233.875 29.5661C221.418 46.115 215.407 92.0974 227.357 97.2739Z" fill="#D7AC84"/>
<path fill-rule="evenodd" clip-rule="evenodd" d="M278.751 88.2686C287.26 66.6489 303.916 53.6105 303.301 43.2559C302.891 36.3528 299.667 31.5953 293.629 28.9834C292.442 15.2392 282.826 7.9671 264.781 7.16726C237.713 5.96749 219.739 14.5336 222.933 40.0729C229.379 41.0819 237.527 39.9562 247.661 45.6559C250.876 47.4644 252.701 51.7977 253.135 58.6557L257.998 59.4168C263.946 52.2899 269.051 50.1278 273.313 52.9306C277.575 55.7335 277.826 60.9607 274.068 68.6124L273.578 87.4589L278.751 88.2686Z" fill="#101030"/>
<path fill-rule="evenodd" clip-rule="evenodd" d="M319.333 239.086L260.765 476.186L222.724 673.128L203.366 679.044L240.805 263.084L319.333 239.086Z" fill="#D2A885"/>
<path fill-rule="evenodd" clip-rule="evenodd" d="M230.237 671.098C232.209 676.221 233.201 680.045 233.211 682.57C233.224 685.589 232.736 689.996 231.748 695.792C228.223 695.806 196.544 695.93 136.711 696.166C134.207 688.063 135.614 683.678 140.933 683.011C146.251 682.343 150.669 681.742 154.186 681.206L198.402 661.411C199.187 661.06 200.108 661.412 200.46 662.197C200.465 662.208 200.47 662.219 200.474 662.23L203.392 669.182C208.328 671.446 212.335 672.572 215.415 672.56C217.964 672.549 221.498 671.494 226.016 669.392L226.016 669.392C227.576 668.667 229.429 669.343 230.154 670.903C230.184 670.967 230.212 671.032 230.237 671.098Z" fill="#E4E4E4"/>
<path fill-rule="evenodd" clip-rule="evenodd" d="M239.387 638.363L198.599 638.476C199.996 584.569 203.582 524.621 209.355 458.631C215.128 392.642 223.286 328.17 233.827 265.215L339.271 232.992C330.11 311.351 317.197 383.953 300.53 450.798C283.863 517.642 263.482 580.164 239.387 638.363Z" fill="#FFD155"/>
<path fill-rule="evenodd" clip-rule="evenodd" d="M323.9 291.731C319.593 366.222 321.612 463.054 323.09 466.354C324.075 468.555 370.817 496.614 463.315 550.532L455.201 567.027C340.275 523.692 280.659 496.593 276.353 485.731C269.894 469.438 246.731 346.871 243.369 273.955L323.9 291.731Z" fill="#D7AC84"/>
<path fill-rule="evenodd" clip-rule="evenodd" d="M425.635 526.729L410.646 552.45C320.832 536.228 268.601 516.012 253.951 491.802C239.302 467.592 235.923 391.11 243.816 262.356L345.252 290.015C334.101 394.169 328.902 448.598 329.655 453.303C330.407 458.008 362.401 482.484 425.635 526.729Z" fill="#FFDD82"/>
<path fill-rule="evenodd" clip-rule="evenodd" d="M455.619 538.712C460.775 536.833 464.615 535.912 467.14 535.947C470.158 535.989 474.556 536.557 480.332 537.65C480.284 541.174 479.847 572.845 479.022 632.663C470.877 635.019 466.518 633.532 465.945 628.204C465.372 622.875 464.849 618.448 464.376 614.922L445.37 570.361C445.033 569.57 445.401 568.655 446.192 568.318C446.203 568.313 446.215 568.308 446.226 568.304L453.227 565.513C455.578 560.62 456.775 556.635 456.817 553.556C456.852 551.007 455.859 547.456 453.838 542.9L453.838 542.9C453.141 541.328 453.85 539.488 455.422 538.791C455.487 538.762 455.552 538.736 455.619 538.712Z" fill="#E4E4E4"/>
<path fill-rule="evenodd" clip-rule="evenodd" d="M159.338 212.398L92.7922 203.459C79.4685 196.093 67.2151 191.112 56.0321 188.516C52.8864 188.43 47.885 189.581 55.3524 195.772C62.8198 201.963 70.3977 208.813 69.0766 212.127C67.7554 215.44 60.8204 214.221 59.6827 219.316C58.9243 222.713 70.1764 223.244 93.439 220.91L147.465 242.178L159.338 212.398Z" fill="#D2A885"/>
<path fill-rule="evenodd" clip-rule="evenodd" d="M267.049 110.744L238.165 112.718C231.186 176.995 192.52 217.658 105.726 204.073L94.3743 286.852C175.491 297.169 246.543 264.624 260.933 176.832C264.658 154.106 267.587 130.456 267.049 110.744Z" fill="#AFB9C5"/>
<path fill-rule="evenodd" clip-rule="evenodd" d="M368.374 227.38C397.356 313.137 413.499 359.346 416.805 366.008C419.229 370.893 437.125 385.714 449.54 394.178C454.523 397.576 452.472 401.939 450.595 403.1C435.329 412.546 425.241 401.428 411.997 395.307C397.487 388.6 398.751 407.611 387.249 402.498C390.761 394.596 398.98 379.889 395.062 370.249C393.32 365.965 372.126 318.41 331.479 227.586L368.374 227.38Z" fill="#D7AC84"/>
<path fill-rule="evenodd" clip-rule="evenodd" d="M334.746 290.62L201.64 290.863C213.823 235.58 237.702 187.583 237.544 112.422L281.408 102.307C313.065 150.771 328.346 210.483 334.746 290.62Z" fill="#C5CFD6"/>
<path fill-rule="evenodd" clip-rule="evenodd" d="M334.75 290.616L295.826 290.687C305.008 253.831 304.703 193.835 294.91 110.697C322.984 159.165 329.057 210.48 334.75 290.616Z" fill="black" fill-opacity="0.1"/>
<path fill-rule="evenodd" clip-rule="evenodd" d="M284.187 102.301C348.918 160.495 391.424 242.846 411.705 349.354L323.198 349.516C320.637 259.807 308.398 180.639 273.002 112.035L281.321 102.306L284.187 102.301Z" fill="#C5CFD6"/>
</svg>
