<svg width="204" height="43" viewBox="0 0 204 43" fill="none" xmlns="http://www.w3.org/2000/svg">
<path d="M12.0535 39.4165C18.7105 39.4165 24.107 34.045 24.107 27.4188C24.107 20.7927 18.7105 15.4211 12.0535 15.4211C5.39654 15.4211 0 20.7927 0 27.4188C0 34.045 5.39654 39.4165 12.0535 39.4165Z" fill="#FFF5D9"/>
<path d="M17.5179 33.9776C24.1748 33.9776 29.5714 28.6061 29.5714 21.9799C29.5714 15.3538 24.1748 9.98221 17.5179 9.98221C10.8609 9.98221 5.46436 15.3538 5.46436 21.9799C5.46436 28.6061 10.8609 33.9776 17.5179 33.9776Z" fill="#FFDD82"/>
<path d="M24.2679 27.5788C30.9249 27.5788 36.3214 22.2072 36.3214 15.5811C36.3214 8.9549 30.9249 3.58334 24.2679 3.58334C17.6109 3.58334 12.2144 8.9549 12.2144 15.5811C12.2144 22.2072 17.6109 27.5788 24.2679 27.5788Z" fill="#F4C33F"/>
<path d="M67.6417 11.1322V31.0556H64.3585V17.4102L58.2529 31.0556H55.9777L49.8433 17.4102V31.0556H46.5601V11.1322H50.1025L57.1297 26.7556L64.1281 11.1322H67.6417ZM70.8626 23.0862C70.8626 21.5 71.189 20.0953 71.8418 18.8722C72.5138 17.6491 73.4162 16.7031 74.549 16.0342C75.701 15.3462 76.9682 15.0022 78.3506 15.0022C79.5986 15.0022 80.6834 15.2507 81.605 15.7476C82.5458 16.2253 83.2946 16.8273 83.8514 17.5536V15.2602H87.1634V31.0556H83.8514V28.7049C83.2946 29.4502 82.5362 30.0713 81.5762 30.5682C80.6162 31.0651 79.5218 31.3136 78.293 31.3136C76.9298 31.3136 75.6818 30.9696 74.549 30.2816C73.4162 29.5744 72.5138 28.5998 71.8418 27.3576C71.189 26.0962 70.8626 24.6724 70.8626 23.0862ZM83.8514 23.1436C83.8514 22.0542 83.621 21.1082 83.1602 20.3056C82.7186 19.5029 82.133 18.8913 81.4034 18.4709C80.6738 18.0504 79.8866 17.8402 79.0418 17.8402C78.197 17.8402 77.4098 18.0504 76.6802 18.4709C75.9506 18.8722 75.3554 19.4742 74.8946 20.2769C74.453 21.0604 74.2322 21.9969 74.2322 23.0862C74.2322 24.1756 74.453 25.1311 74.8946 25.9529C75.3554 26.7747 75.9506 27.4053 76.6802 27.8449C77.429 28.2653 78.2162 28.4756 79.0418 28.4756C79.8866 28.4756 80.6738 28.2653 81.4034 27.8449C82.133 27.4244 82.7186 26.8129 83.1602 26.0102C83.621 25.1884 83.8514 24.2329 83.8514 23.1436ZM97.6101 28.1316L102.103 15.2602H105.588L99.5397 31.0556H95.6229L89.6037 15.2602H93.1173L97.6101 28.1316ZM111.353 9.84222V31.0556H108.069V9.84222H111.353ZM122.546 31.3136C121.049 31.3136 119.695 30.9791 118.486 30.3102C117.276 29.6222 116.326 28.6667 115.634 27.4436C114.943 26.2013 114.598 24.768 114.598 23.1436C114.598 21.5382 114.953 20.1144 115.663 18.8722C116.374 17.63 117.343 16.6744 118.572 16.0056C119.801 15.3367 121.174 15.0022 122.69 15.0022C124.207 15.0022 125.58 15.3367 126.809 16.0056C128.038 16.6744 129.007 17.63 129.718 18.8722C130.428 20.1144 130.783 21.5382 130.783 23.1436C130.783 24.7489 130.418 26.1727 129.689 27.4149C128.959 28.6571 127.961 29.6222 126.694 30.3102C125.446 30.9791 124.063 31.3136 122.546 31.3136ZM122.546 28.4756C123.391 28.4756 124.178 28.2749 124.908 27.8736C125.657 27.4722 126.262 26.8702 126.722 26.0676C127.183 25.2649 127.414 24.2902 127.414 23.1436C127.414 21.9969 127.193 21.0318 126.751 20.2482C126.31 19.4456 125.724 18.8436 124.994 18.4422C124.265 18.0409 123.478 17.8402 122.633 17.8402C121.788 17.8402 121.001 18.0409 120.271 18.4422C119.561 18.8436 118.994 19.4456 118.572 20.2482C118.15 21.0318 117.938 21.9969 117.938 23.1436C117.938 24.8444 118.37 26.1631 119.234 27.0996C120.118 28.0169 121.222 28.4756 122.546 28.4756ZM142.036 15.0022C143.284 15.0022 144.397 15.2602 145.376 15.7762C146.375 16.2922 147.152 17.0567 147.709 18.0696C148.266 19.0824 148.544 20.3056 148.544 21.7389V31.0556H145.29V22.2262C145.29 20.812 144.935 19.7322 144.224 18.9869C143.514 18.2224 142.544 17.8402 141.316 17.8402C140.087 17.8402 139.108 18.2224 138.378 18.9869C137.668 19.7322 137.312 20.812 137.312 22.2262V31.0556H134.029V15.2602H137.312V17.0662C137.85 16.4164 138.532 15.91 139.357 15.5469C140.202 15.1838 141.095 15.0022 142.036 15.0022Z" fill="#252C48"/>
<path d="M156.016 17.6109C156.572 16.8464 157.331 16.2253 158.291 15.7476C159.27 15.2507 160.355 15.0022 161.545 15.0022C162.947 15.0022 164.214 15.3367 165.347 16.0056C166.48 16.6744 167.372 17.63 168.025 18.8722C168.678 20.0953 169.004 21.5 169.004 23.0862C169.004 24.6724 168.678 26.0962 168.025 27.3576C167.372 28.5998 166.47 29.5744 165.318 30.2816C164.185 30.9696 162.928 31.3136 161.545 31.3136C160.316 31.3136 159.222 31.0747 158.262 30.5969C157.321 30.1191 156.572 29.5076 156.016 28.7622V31.0556H152.732V9.84222H156.016V17.6109ZM165.664 23.0862C165.664 21.9969 165.433 21.0604 164.972 20.2769C164.531 19.4742 163.936 18.8722 163.187 18.4709C162.457 18.0504 161.67 17.8402 160.825 17.8402C160 17.8402 159.212 18.0504 158.464 18.4709C157.734 18.8913 157.139 19.5029 156.678 20.3056C156.236 21.1082 156.016 22.0542 156.016 23.1436C156.016 24.2329 156.236 25.1884 156.678 26.0102C157.139 26.8129 157.734 27.4244 158.464 27.8449C159.212 28.2653 160 28.4756 160.825 28.4756C161.67 28.4756 162.457 28.2653 163.187 27.8449C163.936 27.4053 164.531 26.7747 164.972 25.9529C165.433 25.1311 165.664 24.1756 165.664 23.0862ZM186.794 22.7709C186.794 23.3633 186.756 23.8984 186.679 24.3762H174.554C174.65 25.6376 175.121 26.6504 175.966 27.4149C176.81 28.1793 177.847 28.5616 179.076 28.5616C180.842 28.5616 182.09 27.8258 182.82 26.3542H186.362C185.882 27.8067 185.009 29.0011 183.742 29.9376C182.494 30.8549 180.938 31.3136 179.076 31.3136C177.559 31.3136 176.196 30.9791 174.986 30.3102C173.796 29.6222 172.855 28.6667 172.164 27.4436C171.492 26.2013 171.156 24.768 171.156 23.1436C171.156 21.5191 171.482 20.0953 172.135 18.8722C172.807 17.63 173.738 16.6744 174.929 16.0056C176.138 15.3367 177.521 15.0022 179.076 15.0022C180.574 15.0022 181.908 15.3271 183.079 15.9769C184.25 16.6267 185.162 17.544 185.815 18.7289C186.468 19.8947 186.794 21.242 186.794 22.7709ZM183.367 21.7389C183.348 20.5349 182.916 19.5698 182.071 18.8436C181.226 18.1173 180.18 17.7542 178.932 17.7542C177.799 17.7542 176.83 18.1173 176.023 18.8436C175.217 19.5507 174.737 20.5158 174.583 21.7389H183.367ZM196.304 23.1722L203.62 31.0556H199.184L193.309 24.2616V31.0556H190.026V9.84222H193.309V22.1689L199.069 15.2602H203.62L196.304 23.1722Z" fill="#F4C33F"/>
<path d="M12.0535 39.4165C18.7105 39.4165 24.107 34.045 24.107 27.4188C24.107 20.7927 18.7105 15.4211 12.0535 15.4211C5.39654 15.4211 0 20.7927 0 27.4188C0 34.045 5.39654 39.4165 12.0535 39.4165Z" fill="#FFF5D9"/>
<path d="M17.5179 33.9776C24.1748 33.9776 29.5714 28.6061 29.5714 21.9799C29.5714 15.3538 24.1748 9.98221 17.5179 9.98221C10.8609 9.98221 5.46436 15.3538 5.46436 21.9799C5.46436 28.6061 10.8609 33.9776 17.5179 33.9776Z" fill="#FFDD82"/>
<path d="M24.2679 27.5788C30.9249 27.5788 36.3214 22.2072 36.3214 15.5811C36.3214 8.9549 30.9249 3.58334 24.2679 3.58334C17.6109 3.58334 12.2144 8.9549 12.2144 15.5811C12.2144 22.2072 17.6109 27.5788 24.2679 27.5788Z" fill="#F4C33F"/>
<path d="M67.6417 11.1322V31.0556H64.3585V17.4102L58.2529 31.0556H55.9777L49.8433 17.4102V31.0556H46.5601V11.1322H50.1025L57.1297 26.7556L64.1281 11.1322H67.6417ZM70.8626 23.0862C70.8626 21.5 71.189 20.0953 71.8418 18.8722C72.5138 17.6491 73.4162 16.7031 74.549 16.0342C75.701 15.3462 76.9682 15.0022 78.3506 15.0022C79.5986 15.0022 80.6834 15.2507 81.605 15.7476C82.5458 16.2253 83.2946 16.8273 83.8514 17.5536V15.2602H87.1634V31.0556H83.8514V28.7049C83.2946 29.4502 82.5362 30.0713 81.5762 30.5682C80.6162 31.0651 79.5218 31.3136 78.293 31.3136C76.9298 31.3136 75.6818 30.9696 74.549 30.2816C73.4162 29.5744 72.5138 28.5998 71.8418 27.3576C71.189 26.0962 70.8626 24.6724 70.8626 23.0862ZM83.8514 23.1436C83.8514 22.0542 83.621 21.1082 83.1602 20.3056C82.7186 19.5029 82.133 18.8913 81.4034 18.4709C80.6738 18.0504 79.8866 17.8402 79.0418 17.8402C78.197 17.8402 77.4098 18.0504 76.6802 18.4709C75.9506 18.8722 75.3554 19.4742 74.8946 20.2769C74.453 21.0604 74.2322 21.9969 74.2322 23.0862C74.2322 24.1756 74.453 25.1311 74.8946 25.9529C75.3554 26.7747 75.9506 27.4053 76.6802 27.8449C77.429 28.2653 78.2162 28.4756 79.0418 28.4756C79.8866 28.4756 80.6738 28.2653 81.4034 27.8449C82.133 27.4244 82.7186 26.8129 83.1602 26.0102C83.621 25.1884 83.8514 24.2329 83.8514 23.1436ZM97.6101 28.1316L102.103 15.2602H105.588L99.5397 31.0556H95.6229L89.6037 15.2602H93.1173L97.6101 28.1316ZM111.353 9.84222V31.0556H108.069V9.84222H111.353ZM122.546 31.3136C121.049 31.3136 119.695 30.9791 118.486 30.3102C117.276 29.6222 116.326 28.6667 115.634 27.4436C114.943 26.2013 114.598 24.768 114.598 23.1436C114.598 21.5382 114.953 20.1144 115.663 18.8722C116.374 17.63 117.343 16.6744 118.572 16.0056C119.801 15.3367 121.174 15.0022 122.69 15.0022C124.207 15.0022 125.58 15.3367 126.809 16.0056C128.038 16.6744 129.007 17.63 129.718 18.8722C130.428 20.1144 130.783 21.5382 130.783 23.1436C130.783 24.7489 130.418 26.1727 129.689 27.4149C128.959 28.6571 127.961 29.6222 126.694 30.3102C125.446 30.9791 124.063 31.3136 122.546 31.3136ZM122.546 28.4756C123.391 28.4756 124.178 28.2749 124.908 27.8736C125.657 27.4722 126.262 26.8702 126.722 26.0676C127.183 25.2649 127.414 24.2902 127.414 23.1436C127.414 21.9969 127.193 21.0318 126.751 20.2482C126.31 19.4456 125.724 18.8436 124.994 18.4422C124.265 18.0409 123.478 17.8402 122.633 17.8402C121.788 17.8402 121.001 18.0409 120.271 18.4422C119.561 18.8436 118.994 19.4456 118.572 20.2482C118.15 21.0318 117.938 21.9969 117.938 23.1436C117.938 24.8444 118.37 26.1631 119.234 27.0996C120.118 28.0169 121.222 28.4756 122.546 28.4756ZM142.036 15.0022C143.284 15.0022 144.397 15.2602 145.376 15.7762C146.375 16.2922 147.152 17.0567 147.709 18.0696C148.266 19.0824 148.544 20.3056 148.544 21.7389V31.0556H145.29V22.2262C145.29 20.812 144.935 19.7322 144.224 18.9869C143.514 18.2224 142.544 17.8402 141.316 17.8402C140.087 17.8402 139.108 18.2224 138.378 18.9869C137.668 19.7322 137.312 20.812 137.312 22.2262V31.0556H134.029V15.2602H137.312V17.0662C137.85 16.4164 138.532 15.91 139.357 15.5469C140.202 15.1838 141.095 15.0022 142.036 15.0022Z" fill="#252C48"/>
<path d="M156.016 17.6109C156.572 16.8464 157.331 16.2253 158.291 15.7476C159.27 15.2507 160.355 15.0022 161.545 15.0022C162.947 15.0022 164.214 15.3367 165.347 16.0056C166.48 16.6744 167.372 17.63 168.025 18.8722C168.678 20.0953 169.004 21.5 169.004 23.0862C169.004 24.6724 168.678 26.0962 168.025 27.3576C167.372 28.5998 166.47 29.5744 165.318 30.2816C164.185 30.9696 162.928 31.3136 161.545 31.3136C160.316 31.3136 159.222 31.0747 158.262 30.5969C157.321 30.1191 156.572 29.5076 156.016 28.7622V31.0556H152.732V9.84222H156.016V17.6109ZM165.664 23.0862C165.664 21.9969 165.433 21.0604 164.972 20.2769C164.531 19.4742 163.936 18.8722 163.187 18.4709C162.457 18.0504 161.67 17.8402 160.825 17.8402C160 17.8402 159.212 18.0504 158.464 18.4709C157.734 18.8913 157.139 19.5029 156.678 20.3056C156.236 21.1082 156.016 22.0542 156.016 23.1436C156.016 24.2329 156.236 25.1884 156.678 26.0102C157.139 26.8129 157.734 27.4244 158.464 27.8449C159.212 28.2653 160 28.4756 160.825 28.4756C161.67 28.4756 162.457 28.2653 163.187 27.8449C163.936 27.4053 164.531 26.7747 164.972 25.9529C165.433 25.1311 165.664 24.1756 165.664 23.0862ZM186.794 22.7709C186.794 23.3633 186.756 23.8984 186.679 24.3762H174.554C174.65 25.6376 175.121 26.6504 175.966 27.4149C176.81 28.1793 177.847 28.5616 179.076 28.5616C180.842 28.5616 182.09 27.8258 182.82 26.3542H186.362C185.882 27.8067 185.009 29.0011 183.742 29.9376C182.494 30.8549 180.938 31.3136 179.076 31.3136C177.559 31.3136 176.196 30.9791 174.986 30.3102C173.796 29.6222 172.855 28.6667 172.164 27.4436C171.492 26.2013 171.156 24.768 171.156 23.1436C171.156 21.5191 171.482 20.0953 172.135 18.8722C172.807 17.63 173.738 16.6744 174.929 16.0056C176.138 15.3367 177.521 15.0022 179.076 15.0022C180.574 15.0022 181.908 15.3271 183.079 15.9769C184.25 16.6267 185.162 17.544 185.815 18.7289C186.468 19.8947 186.794 21.242 186.794 22.7709ZM183.367 21.7389C183.348 20.5349 182.916 19.5698 182.071 18.8436C181.226 18.1173 180.18 17.7542 178.932 17.7542C177.799 17.7542 176.83 18.1173 176.023 18.8436C175.217 19.5507 174.737 20.5158 174.583 21.7389H183.367ZM196.304 23.1722L203.62 31.0556H199.184L193.309 24.2616V31.0556H190.026V9.84222H193.309V22.1689L199.069 15.2602H203.62L196.304 23.1722Z" fill="#F4C33F"/>
<path d="M12.0535 39.4165C18.7105 39.4165 24.107 34.045 24.107 27.4188C24.107 20.7927 18.7105 15.4211 12.0535 15.4211C5.39654 15.4211 0 20.7927 0 27.4188C0 34.045 5.39654 39.4165 12.0535 39.4165Z" fill="#FFF5D9"/>
<path d="M17.5179 33.9776C24.1748 33.9776 29.5714 28.6061 29.5714 21.9799C29.5714 15.3538 24.1748 9.98221 17.5179 9.98221C10.8609 9.98221 5.46436 15.3538 5.46436 21.9799C5.46436 28.6061 10.8609 33.9776 17.5179 33.9776Z" fill="#FFDD82"/>
<path d="M24.2679 27.5788C30.9249 27.5788 36.3214 22.2072 36.3214 15.5811C36.3214 8.9549 30.9249 3.58334 24.2679 3.58334C17.6109 3.58334 12.2144 8.9549 12.2144 15.5811C12.2144 22.2072 17.6109 27.5788 24.2679 27.5788Z" fill="#F4C33F"/>
<path d="M67.6417 11.1322V31.0556H64.3585V17.4102L58.2529 31.0556H55.9777L49.8433 17.4102V31.0556H46.5601V11.1322H50.1025L57.1297 26.7556L64.1281 11.1322H67.6417ZM70.8626 23.0862C70.8626 21.5 71.189 20.0953 71.8418 18.8722C72.5138 17.6491 73.4162 16.7031 74.549 16.0342C75.701 15.3462 76.9682 15.0022 78.3506 15.0022C79.5986 15.0022 80.6834 15.2507 81.605 15.7476C82.5458 16.2253 83.2946 16.8273 83.8514 17.5536V15.2602H87.1634V31.0556H83.8514V28.7049C83.2946 29.4502 82.5362 30.0713 81.5762 30.5682C80.6162 31.0651 79.5218 31.3136 78.293 31.3136C76.9298 31.3136 75.6818 30.9696 74.549 30.2816C73.4162 29.5744 72.5138 28.5998 71.8418 27.3576C71.189 26.0962 70.8626 24.6724 70.8626 23.0862ZM83.8514 23.1436C83.8514 22.0542 83.621 21.1082 83.1602 20.3056C82.7186 19.5029 82.133 18.8913 81.4034 18.4709C80.6738 18.0504 79.8866 17.8402 79.0418 17.8402C78.197 17.8402 77.4098 18.0504 76.6802 18.4709C75.9506 18.8722 75.3554 19.4742 74.8946 20.2769C74.453 21.0604 74.2322 21.9969 74.2322 23.0862C74.2322 24.1756 74.453 25.1311 74.8946 25.9529C75.3554 26.7747 75.9506 27.4053 76.6802 27.8449C77.429 28.2653 78.2162 28.4756 79.0418 28.4756C79.8866 28.4756 80.6738 28.2653 81.4034 27.8449C82.133 27.4244 82.7186 26.8129 83.1602 26.0102C83.621 25.1884 83.8514 24.2329 83.8514 23.1436ZM97.6101 28.1316L102.103 15.2602H105.588L99.5397 31.0556H95.6229L89.6037 15.2602H93.1173L97.6101 28.1316ZM111.353 9.84222V31.0556H108.069V9.84222H111.353ZM122.546 31.3136C121.049 31.3136 119.695 30.9791 118.486 30.3102C117.276 29.6222 116.326 28.6667 115.634 27.4436C114.943 26.2013 114.598 24.768 114.598 23.1436C114.598 21.5382 114.953 20.1144 115.663 18.8722C116.374 17.63 117.343 16.6744 118.572 16.0056C119.801 15.3367 121.174 15.0022 122.69 15.0022C124.207 15.0022 125.58 15.3367 126.809 16.0056C128.038 16.6744 129.007 17.63 129.718 18.8722C130.428 20.1144 130.783 21.5382 130.783 23.1436C130.783 24.7489 130.418 26.1727 129.689 27.4149C128.959 28.6571 127.961 29.6222 126.694 30.3102C125.446 30.9791 124.063 31.3136 122.546 31.3136ZM122.546 28.4756C123.391 28.4756 124.178 28.2749 124.908 27.8736C125.657 27.4722 126.262 26.8702 126.722 26.0676C127.183 25.2649 127.414 24.2902 127.414 23.1436C127.414 21.9969 127.193 21.0318 126.751 20.2482C126.31 19.4456 125.724 18.8436 124.994 18.4422C124.265 18.0409 123.478 17.8402 122.633 17.8402C121.788 17.8402 121.001 18.0409 120.271 18.4422C119.561 18.8436 118.994 19.4456 118.572 20.2482C118.15 21.0318 117.938 21.9969 117.938 23.1436C117.938 24.8444 118.37 26.1631 119.234 27.0996C120.118 28.0169 121.222 28.4756 122.546 28.4756ZM142.036 15.0022C143.284 15.0022 144.397 15.2602 145.376 15.7762C146.375 16.2922 147.152 17.0567 147.709 18.0696C148.266 19.0824 148.544 20.3056 148.544 21.7389V31.0556H145.29V22.2262C145.29 20.812 144.935 19.7322 144.224 18.9869C143.514 18.2224 142.544 17.8402 141.316 17.8402C140.087 17.8402 139.108 18.2224 138.378 18.9869C137.668 19.7322 137.312 20.812 137.312 22.2262V31.0556H134.029V15.2602H137.312V17.0662C137.85 16.4164 138.532 15.91 139.357 15.5469C140.202 15.1838 141.095 15.0022 142.036 15.0022Z" fill="#252C48"/>
<path d="M156.016 17.6109C156.572 16.8464 157.331 16.2253 158.291 15.7476C159.27 15.2507 160.355 15.0022 161.545 15.0022C162.947 15.0022 164.214 15.3367 165.347 16.0056C166.48 16.6744 167.372 17.63 168.025 18.8722C168.678 20.0953 169.004 21.5 169.004 23.0862C169.004 24.6724 168.678 26.0962 168.025 27.3576C167.372 28.5998 166.47 29.5744 165.318 30.2816C164.185 30.9696 162.928 31.3136 161.545 31.3136C160.316 31.3136 159.222 31.0747 158.262 30.5969C157.321 30.1191 156.572 29.5076 156.016 28.7622V31.0556H152.732V9.84222H156.016V17.6109ZM165.664 23.0862C165.664 21.9969 165.433 21.0604 164.972 20.2769C164.531 19.4742 163.936 18.8722 163.187 18.4709C162.457 18.0504 161.67 17.8402 160.825 17.8402C160 17.8402 159.212 18.0504 158.464 18.4709C157.734 18.8913 157.139 19.5029 156.678 20.3056C156.236 21.1082 156.016 22.0542 156.016 23.1436C156.016 24.2329 156.236 25.1884 156.678 26.0102C157.139 26.8129 157.734 27.4244 158.464 27.8449C159.212 28.2653 160 28.4756 160.825 28.4756C161.67 28.4756 162.457 28.2653 163.187 27.8449C163.936 27.4053 164.531 26.7747 164.972 25.9529C165.433 25.1311 165.664 24.1756 165.664 23.0862ZM186.794 22.7709C186.794 23.3633 186.756 23.8984 186.679 24.3762H174.554C174.65 25.6376 175.121 26.6504 175.966 27.4149C176.81 28.1793 177.847 28.5616 179.076 28.5616C180.842 28.5616 182.09 27.8258 182.82 26.3542H186.362C185.882 27.8067 185.009 29.0011 183.742 29.9376C182.494 30.8549 180.938 31.3136 179.076 31.3136C177.559 31.3136 176.196 30.9791 174.986 30.3102C173.796 29.6222 172.855 28.6667 172.164 27.4436C171.492 26.2013 171.156 24.768 171.156 23.1436C171.156 21.5191 171.482 20.0953 172.135 18.8722C172.807 17.63 173.738 16.6744 174.929 16.0056C176.138 15.3367 177.521 15.0022 179.076 15.0022C180.574 15.0022 181.908 15.3271 183.079 15.9769C184.25 16.6267 185.162 17.544 185.815 18.7289C186.468 19.8947 186.794 21.242 186.794 22.7709ZM183.367 21.7389C183.348 20.5349 182.916 19.5698 182.071 18.8436C181.226 18.1173 180.18 17.7542 178.932 17.7542C177.799 17.7542 176.83 18.1173 176.023 18.8436C175.217 19.5507 174.737 20.5158 174.583 21.7389H183.367ZM196.304 23.1722L203.62 31.0556H199.184L193.309 24.2616V31.0556H190.026V9.84222H193.309V22.1689L199.069 15.2602H203.62L196.304 23.1722Z" fill="#F4C33F"/>
<path d="M12.0535 39.4165C18.7105 39.4165 24.107 34.045 24.107 27.4188C24.107 20.7927 18.7105 15.4211 12.0535 15.4211C5.39654 15.4211 0 20.7927 0 27.4188C0 34.045 5.39654 39.4165 12.0535 39.4165Z" fill="#FFF5D9"/>
<path d="M17.5179 33.9776C24.1748 33.9776 29.5714 28.6061 29.5714 21.9799C29.5714 15.3538 24.1748 9.98221 17.5179 9.98221C10.8609 9.98221 5.46436 15.3538 5.46436 21.9799C5.46436 28.6061 10.8609 33.9776 17.5179 33.9776Z" fill="#FFDD82"/>
<path d="M24.2679 27.5788C30.9249 27.5788 36.3214 22.2072 36.3214 15.5811C36.3214 8.9549 30.9249 3.58334 24.2679 3.58334C17.6109 3.58334 12.2144 8.9549 12.2144 15.5811C12.2144 22.2072 17.6109 27.5788 24.2679 27.5788Z" fill="#F4C33F"/>
<path d="M67.6417 11.1322V31.0556H64.3585V17.4102L58.2529 31.0556H55.9777L49.8433 17.4102V31.0556H46.5601V11.1322H50.1025L57.1297 26.7556L64.1281 11.1322H67.6417ZM70.8626 23.0862C70.8626 21.5 71.189 20.0953 71.8418 18.8722C72.5138 17.6491 73.4162 16.7031 74.549 16.0342C75.701 15.3462 76.9682 15.0022 78.3506 15.0022C79.5986 15.0022 80.6834 15.2507 81.605 15.7476C82.5458 16.2253 83.2946 16.8273 83.8514 17.5536V15.2602H87.1634V31.0556H83.8514V28.7049C83.2946 29.4502 82.5362 30.0713 81.5762 30.5682C80.6162 31.0651 79.5218 31.3136 78.293 31.3136C76.9298 31.3136 75.6818 30.9696 74.549 30.2816C73.4162 29.5744 72.5138 28.5998 71.8418 27.3576C71.189 26.0962 70.8626 24.6724 70.8626 23.0862ZM83.8514 23.1436C83.8514 22.0542 83.621 21.1082 83.1602 20.3056C82.7186 19.5029 82.133 18.8913 81.4034 18.4709C80.6738 18.0504 79.8866 17.8402 79.0418 17.8402C78.197 17.8402 77.4098 18.0504 76.6802 18.4709C75.9506 18.8722 75.3554 19.4742 74.8946 20.2769C74.453 21.0604 74.2322 21.9969 74.2322 23.0862C74.2322 24.1756 74.453 25.1311 74.8946 25.9529C75.3554 26.7747 75.9506 27.4053 76.6802 27.8449C77.429 28.2653 78.2162 28.4756 79.0418 28.4756C79.8866 28.4756 80.6738 28.2653 81.4034 27.8449C82.133 27.4244 82.7186 26.8129 83.1602 26.0102C83.621 25.1884 83.8514 24.2329 83.8514 23.1436ZM97.6101 28.1316L102.103 15.2602H105.588L99.5397 31.0556H95.6229L89.6037 15.2602H93.1173L97.6101 28.1316ZM111.353 9.84222V31.0556H108.069V9.84222H111.353ZM122.546 31.3136C121.049 31.3136 119.695 30.9791 118.486 30.3102C117.276 29.6222 116.326 28.6667 115.634 27.4436C114.943 26.2013 114.598 24.768 114.598 23.1436C114.598 21.5382 114.953 20.1144 115.663 18.8722C116.374 17.63 117.343 16.6744 118.572 16.0056C119.801 15.3367 121.174 15.0022 122.69 15.0022C124.207 15.0022 125.58 15.3367 126.809 16.0056C128.038 16.6744 129.007 17.63 129.718 18.8722C130.428 20.1144 130.783 21.5382 130.783 23.1436C130.783 24.7489 130.418 26.1727 129.689 27.4149C128.959 28.6571 127.961 29.6222 126.694 30.3102C125.446 30.9791 124.063 31.3136 122.546 31.3136ZM122.546 28.4756C123.391 28.4756 124.178 28.2749 124.908 27.8736C125.657 27.4722 126.262 26.8702 126.722 26.0676C127.183 25.2649 127.414 24.2902 127.414 23.1436C127.414 21.9969 127.193 21.0318 126.751 20.2482C126.31 19.4456 125.724 18.8436 124.994 18.4422C124.265 18.0409 123.478 17.8402 122.633 17.8402C121.788 17.8402 121.001 18.0409 120.271 18.4422C119.561 18.8436 118.994 19.4456 118.572 20.2482C118.15 21.0318 117.938 21.9969 117.938 23.1436C117.938 24.8444 118.37 26.1631 119.234 27.0996C120.118 28.0169 121.222 28.4756 122.546 28.4756ZM142.036 15.0022C143.284 15.0022 144.397 15.2602 145.376 15.7762C146.375 16.2922 147.152 17.0567 147.709 18.0696C148.266 19.0824 148.544 20.3056 148.544 21.7389V31.0556H145.29V22.2262C145.29 20.812 144.935 19.7322 144.224 18.9869C143.514 18.2224 142.544 17.8402 141.316 17.8402C140.087 17.8402 139.108 18.2224 138.378 18.9869C137.668 19.7322 137.312 20.812 137.312 22.2262V31.0556H134.029V15.2602H137.312V17.0662C137.85 16.4164 138.532 15.91 139.357 15.5469C140.202 15.1838 141.095 15.0022 142.036 15.0022Z" fill="#252C48"/>
<path d="M156.016 17.6109C156.572 16.8464 157.331 16.2253 158.291 15.7476C159.27 15.2507 160.355 15.0022 161.545 15.0022C162.947 15.0022 164.214 15.3367 165.347 16.0056C166.48 16.6744 167.372 17.63 168.025 18.8722C168.678 20.0953 169.004 21.5 169.004 23.0862C169.004 24.6724 168.678 26.0962 168.025 27.3576C167.372 28.5998 166.47 29.5744 165.318 30.2816C164.185 30.9696 162.928 31.3136 161.545 31.3136C160.316 31.3136 159.222 31.0747 158.262 30.5969C157.321 30.1191 156.572 29.5076 156.016 28.7622V31.0556H152.732V9.84222H156.016V17.6109ZM165.664 23.0862C165.664 21.9969 165.433 21.0604 164.972 20.2769C164.531 19.4742 163.936 18.8722 163.187 18.4709C162.457 18.0504 161.67 17.8402 160.825 17.8402C160 17.8402 159.212 18.0504 158.464 18.4709C157.734 18.8913 157.139 19.5029 156.678 20.3056C156.236 21.1082 156.016 22.0542 156.016 23.1436C156.016 24.2329 156.236 25.1884 156.678 26.0102C157.139 26.8129 157.734 27.4244 158.464 27.8449C159.212 28.2653 160 28.4756 160.825 28.4756C161.67 28.4756 162.457 28.2653 163.187 27.8449C163.936 27.4053 164.531 26.7747 164.972 25.9529C165.433 25.1311 165.664 24.1756 165.664 23.0862ZM186.794 22.7709C186.794 23.3633 186.756 23.8984 186.679 24.3762H174.554C174.65 25.6376 175.121 26.6504 175.966 27.4149C176.81 28.1793 177.847 28.5616 179.076 28.5616C180.842 28.5616 182.09 27.8258 182.82 26.3542H186.362C185.882 27.8067 185.009 29.0011 183.742 29.9376C182.494 30.8549 180.938 31.3136 179.076 31.3136C177.559 31.3136 176.196 30.9791 174.986 30.3102C173.796 29.6222 172.855 28.6667 172.164 27.4436C171.492 26.2013 171.156 24.768 171.156 23.1436C171.156 21.5191 171.482 20.0953 172.135 18.8722C172.807 17.63 173.738 16.6744 174.929 16.0056C176.138 15.3367 177.521 15.0022 179.076 15.0022C180.574 15.0022 181.908 15.3271 183.079 15.9769C184.25 16.6267 185.162 17.544 185.815 18.7289C186.468 19.8947 186.794 21.242 186.794 22.7709ZM183.367 21.7389C183.348 20.5349 182.916 19.5698 182.071 18.8436C181.226 18.1173 180.18 17.7542 178.932 17.7542C177.799 17.7542 176.83 18.1173 176.023 18.8436C175.217 19.5507 174.737 20.5158 174.583 21.7389H183.367ZM196.304 23.1722L203.62 31.0556H199.184L193.309 24.2616V31.0556H190.026V9.84222H193.309V22.1689L199.069 15.2602H203.62L196.304 23.1722Z" fill="#F4C33F"/>
<path d="M12.0535 39.4165C18.7105 39.4165 24.107 34.045 24.107 27.4188C24.107 20.7927 18.7105 15.4211 12.0535 15.4211C5.39654 15.4211 0 20.7927 0 27.4188C0 34.045 5.39654 39.4165 12.0535 39.4165Z" fill="#FFF5D9"/>
<path d="M17.5179 33.9776C24.1748 33.9776 29.5714 28.6061 29.5714 21.9799C29.5714 15.3538 24.1748 9.98221 17.5179 9.98221C10.8609 9.98221 5.46436 15.3538 5.46436 21.9799C5.46436 28.6061 10.8609 33.9776 17.5179 33.9776Z" fill="#FFDD82"/>
<path d="M24.2679 27.5788C30.9249 27.5788 36.3214 22.2072 36.3214 15.5811C36.3214 8.9549 30.9249 3.58334 24.2679 3.58334C17.6109 3.58334 12.2144 8.9549 12.2144 15.5811C12.2144 22.2072 17.6109 27.5788 24.2679 27.5788Z" fill="#F4C33F"/>
<path d="M67.6417 11.1322V31.0556H64.3585V17.4102L58.2529 31.0556H55.9777L49.8433 17.4102V31.0556H46.5601V11.1322H50.1025L57.1297 26.7556L64.1281 11.1322H67.6417ZM70.8626 23.0862C70.8626 21.5 71.189 20.0953 71.8418 18.8722C72.5138 17.6491 73.4162 16.7031 74.549 16.0342C75.701 15.3462 76.9682 15.0022 78.3506 15.0022C79.5986 15.0022 80.6834 15.2507 81.605 15.7476C82.5458 16.2253 83.2946 16.8273 83.8514 17.5536V15.2602H87.1634V31.0556H83.8514V28.7049C83.2946 29.4502 82.5362 30.0713 81.5762 30.5682C80.6162 31.0651 79.5218 31.3136 78.293 31.3136C76.9298 31.3136 75.6818 30.9696 74.549 30.2816C73.4162 29.5744 72.5138 28.5998 71.8418 27.3576C71.189 26.0962 70.8626 24.6724 70.8626 23.0862ZM83.8514 23.1436C83.8514 22.0542 83.621 21.1082 83.1602 20.3056C82.7186 19.5029 82.133 18.8913 81.4034 18.4709C80.6738 18.0504 79.8866 17.8402 79.0418 17.8402C78.197 17.8402 77.4098 18.0504 76.6802 18.4709C75.9506 18.8722 75.3554 19.4742 74.8946 20.2769C74.453 21.0604 74.2322 21.9969 74.2322 23.0862C74.2322 24.1756 74.453 25.1311 74.8946 25.9529C75.3554 26.7747 75.9506 27.4053 76.6802 27.8449C77.429 28.2653 78.2162 28.4756 79.0418 28.4756C79.8866 28.4756 80.6738 28.2653 81.4034 27.8449C82.133 27.4244 82.7186 26.8129 83.1602 26.0102C83.621 25.1884 83.8514 24.2329 83.8514 23.1436ZM97.6101 28.1316L102.103 15.2602H105.588L99.5397 31.0556H95.6229L89.6037 15.2602H93.1173L97.6101 28.1316ZM111.353 9.84222V31.0556H108.069V9.84222H111.353ZM122.546 31.3136C121.049 31.3136 119.695 30.9791 118.486 30.3102C117.276 29.6222 116.326 28.6667 115.634 27.4436C114.943 26.2013 114.598 24.768 114.598 23.1436C114.598 21.5382 114.953 20.1144 115.663 18.8722C116.374 17.63 117.343 16.6744 118.572 16.0056C119.801 15.3367 121.174 15.0022 122.69 15.0022C124.207 15.0022 125.58 15.3367 126.809 16.0056C128.038 16.6744 129.007 17.63 129.718 18.8722C130.428 20.1144 130.783 21.5382 130.783 23.1436C130.783 24.7489 130.418 26.1727 129.689 27.4149C128.959 28.6571 127.961 29.6222 126.694 30.3102C125.446 30.9791 124.063 31.3136 122.546 31.3136ZM122.546 28.4756C123.391 28.4756 124.178 28.2749 124.908 27.8736C125.657 27.4722 126.262 26.8702 126.722 26.0676C127.183 25.2649 127.414 24.2902 127.414 23.1436C127.414 21.9969 127.193 21.0318 126.751 20.2482C126.31 19.4456 125.724 18.8436 124.994 18.4422C124.265 18.0409 123.478 17.8402 122.633 17.8402C121.788 17.8402 121.001 18.0409 120.271 18.4422C119.561 18.8436 118.994 19.4456 118.572 20.2482C118.15 21.0318 117.938 21.9969 117.938 23.1436C117.938 24.8444 118.37 26.1631 119.234 27.0996C120.118 28.0169 121.222 28.4756 122.546 28.4756ZM142.036 15.0022C143.284 15.0022 144.397 15.2602 145.376 15.7762C146.375 16.2922 147.152 17.0567 147.709 18.0696C148.266 19.0824 148.544 20.3056 148.544 21.7389V31.0556H145.29V22.2262C145.29 20.812 144.935 19.7322 144.224 18.9869C143.514 18.2224 142.544 17.8402 141.316 17.8402C140.087 17.8402 139.108 18.2224 138.378 18.9869C137.668 19.7322 137.312 20.812 137.312 22.2262V31.0556H134.029V15.2602H137.312V17.0662C137.85 16.4164 138.532 15.91 139.357 15.5469C140.202 15.1838 141.095 15.0022 142.036 15.0022Z" fill="#252C48"/>
<path d="M156.016 17.6109C156.572 16.8464 157.331 16.2253 158.291 15.7476C159.27 15.2507 160.355 15.0022 161.545 15.0022C162.947 15.0022 164.214 15.3367 165.347 16.0056C166.48 16.6744 167.372 17.63 168.025 18.8722C168.678 20.0953 169.004 21.5 169.004 23.0862C169.004 24.6724 168.678 26.0962 168.025 27.3576C167.372 28.5998 166.47 29.5744 165.318 30.2816C164.185 30.9696 162.928 31.3136 161.545 31.3136C160.316 31.3136 159.222 31.0747 158.262 30.5969C157.321 30.1191 156.572 29.5076 156.016 28.7622V31.0556H152.732V9.84222H156.016V17.6109ZM165.664 23.0862C165.664 21.9969 165.433 21.0604 164.972 20.2769C164.531 19.4742 163.936 18.8722 163.187 18.4709C162.457 18.0504 161.67 17.8402 160.825 17.8402C160 17.8402 159.212 18.0504 158.464 18.4709C157.734 18.8913 157.139 19.5029 156.678 20.3056C156.236 21.1082 156.016 22.0542 156.016 23.1436C156.016 24.2329 156.236 25.1884 156.678 26.0102C157.139 26.8129 157.734 27.4244 158.464 27.8449C159.212 28.2653 160 28.4756 160.825 28.4756C161.67 28.4756 162.457 28.2653 163.187 27.8449C163.936 27.4053 164.531 26.7747 164.972 25.9529C165.433 25.1311 165.664 24.1756 165.664 23.0862ZM186.794 22.7709C186.794 23.3633 186.756 23.8984 186.679 24.3762H174.554C174.65 25.6376 175.121 26.6504 175.966 27.4149C176.81 28.1793 177.847 28.5616 179.076 28.5616C180.842 28.5616 182.09 27.8258 182.82 26.3542H186.362C185.882 27.8067 185.009 29.0011 183.742 29.9376C182.494 30.8549 180.938 31.3136 179.076 31.3136C177.559 31.3136 176.196 30.9791 174.986 30.3102C173.796 29.6222 172.855 28.6667 172.164 27.4436C171.492 26.2013 171.156 24.768 171.156 23.1436C171.156 21.5191 171.482 20.0953 172.135 18.8722C172.807 17.63 173.738 16.6744 174.929 16.0056C176.138 15.3367 177.521 15.0022 179.076 15.0022C180.574 15.0022 181.908 15.3271 183.079 15.9769C184.25 16.6267 185.162 17.544 185.815 18.7289C186.468 19.8947 186.794 21.242 186.794 22.7709ZM183.367 21.7389C183.348 20.5349 182.916 19.5698 182.071 18.8436C181.226 18.1173 180.18 17.7542 178.932 17.7542C177.799 17.7542 176.83 18.1173 176.023 18.8436C175.217 19.5507 174.737 20.5158 174.583 21.7389H183.367ZM196.304 23.1722L203.62 31.0556H199.184L193.309 24.2616V31.0556H190.026V9.84222H193.309V22.1689L199.069 15.2602H203.62L196.304 23.1722Z" fill="#F4C33F"/>
<path d="M12.0535 39.4165C18.7105 39.4165 24.107 34.045 24.107 27.4188C24.107 20.7927 18.7105 15.4211 12.0535 15.4211C5.39654 15.4211 0 20.7927 0 27.4188C0 34.045 5.39654 39.4165 12.0535 39.4165Z" fill="#FFF5D9"/>
<path d="M17.5179 33.9776C24.1748 33.9776 29.5714 28.6061 29.5714 21.9799C29.5714 15.3538 24.1748 9.98221 17.5179 9.98221C10.8609 9.98221 5.46436 15.3538 5.46436 21.9799C5.46436 28.6061 10.8609 33.9776 17.5179 33.9776Z" fill="#FFDD82"/>
<path d="M24.2679 27.5788C30.9249 27.5788 36.3214 22.2072 36.3214 15.5811C36.3214 8.9549 30.9249 3.58334 24.2679 3.58334C17.6109 3.58334 12.2144 8.9549 12.2144 15.5811C12.2144 22.2072 17.6109 27.5788 24.2679 27.5788Z" fill="#F4C33F"/>
<path d="M67.6417 11.1322V31.0556H64.3585V17.4102L58.2529 31.0556H55.9777L49.8433 17.4102V31.0556H46.5601V11.1322H50.1025L57.1297 26.7556L64.1281 11.1322H67.6417ZM70.8626 23.0862C70.8626 21.5 71.189 20.0953 71.8418 18.8722C72.5138 17.6491 73.4162 16.7031 74.549 16.0342C75.701 15.3462 76.9682 15.0022 78.3506 15.0022C79.5986 15.0022 80.6834 15.2507 81.605 15.7476C82.5458 16.2253 83.2946 16.8273 83.8514 17.5536V15.2602H87.1634V31.0556H83.8514V28.7049C83.2946 29.4502 82.5362 30.0713 81.5762 30.5682C80.6162 31.0651 79.5218 31.3136 78.293 31.3136C76.9298 31.3136 75.6818 30.9696 74.549 30.2816C73.4162 29.5744 72.5138 28.5998 71.8418 27.3576C71.189 26.0962 70.8626 24.6724 70.8626 23.0862ZM83.8514 23.1436C83.8514 22.0542 83.621 21.1082 83.1602 20.3056C82.7186 19.5029 82.133 18.8913 81.4034 18.4709C80.6738 18.0504 79.8866 17.8402 79.0418 17.8402C78.197 17.8402 77.4098 18.0504 76.6802 18.4709C75.9506 18.8722 75.3554 19.4742 74.8946 20.2769C74.453 21.0604 74.2322 21.9969 74.2322 23.0862C74.2322 24.1756 74.453 25.1311 74.8946 25.9529C75.3554 26.7747 75.9506 27.4053 76.6802 27.8449C77.429 28.2653 78.2162 28.4756 79.0418 28.4756C79.8866 28.4756 80.6738 28.2653 81.4034 27.8449C82.133 27.4244 82.7186 26.8129 83.1602 26.0102C83.621 25.1884 83.8514 24.2329 83.8514 23.1436ZM97.6101 28.1316L102.103 15.2602H105.588L99.5397 31.0556H95.6229L89.6037 15.2602H93.1173L97.6101 28.1316ZM111.353 9.84222V31.0556H108.069V9.84222H111.353ZM122.546 31.3136C121.049 31.3136 119.695 30.9791 118.486 30.3102C117.276 29.6222 116.326 28.6667 115.634 27.4436C114.943 26.2013 114.598 24.768 114.598 23.1436C114.598 21.5382 114.953 20.1144 115.663 18.8722C116.374 17.63 117.343 16.6744 118.572 16.0056C119.801 15.3367 121.174 15.0022 122.69 15.0022C124.207 15.0022 125.58 15.3367 126.809 16.0056C128.038 16.6744 129.007 17.63 129.718 18.8722C130.428 20.1144 130.783 21.5382 130.783 23.1436C130.783 24.7489 130.418 26.1727 129.689 27.4149C128.959 28.6571 127.961 29.6222 126.694 30.3102C125.446 30.9791 124.063 31.3136 122.546 31.3136ZM122.546 28.4756C123.391 28.4756 124.178 28.2749 124.908 27.8736C125.657 27.4722 126.262 26.8702 126.722 26.0676C127.183 25.2649 127.414 24.2902 127.414 23.1436C127.414 21.9969 127.193 21.0318 126.751 20.2482C126.31 19.4456 125.724 18.8436 124.994 18.4422C124.265 18.0409 123.478 17.8402 122.633 17.8402C121.788 17.8402 121.001 18.0409 120.271 18.4422C119.561 18.8436 118.994 19.4456 118.572 20.2482C118.15 21.0318 117.938 21.9969 117.938 23.1436C117.938 24.8444 118.37 26.1631 119.234 27.0996C120.118 28.0169 121.222 28.4756 122.546 28.4756ZM142.036 15.0022C143.284 15.0022 144.397 15.2602 145.376 15.7762C146.375 16.2922 147.152 17.0567 147.709 18.0696C148.266 19.0824 148.544 20.3056 148.544 21.7389V31.0556H145.29V22.2262C145.29 20.812 144.935 19.7322 144.224 18.9869C143.514 18.2224 142.544 17.8402 141.316 17.8402C140.087 17.8402 139.108 18.2224 138.378 18.9869C137.668 19.7322 137.312 20.812 137.312 22.2262V31.0556H134.029V15.2602H137.312V17.0662C137.85 16.4164 138.532 15.91 139.357 15.5469C140.202 15.1838 141.095 15.0022 142.036 15.0022Z" fill="#252C48"/>
<path d="M156.016 17.6109C156.572 16.8464 157.331 16.2253 158.291 15.7476C159.27 15.2507 160.355 15.0022 161.545 15.0022C162.947 15.0022 164.214 15.3367 165.347 16.0056C166.48 16.6744 167.372 17.63 168.025 18.8722C168.678 20.0953 169.004 21.5 169.004 23.0862C169.004 24.6724 168.678 26.0962 168.025 27.3576C167.372 28.5998 166.47 29.5744 165.318 30.2816C164.185 30.9696 162.928 31.3136 161.545 31.3136C160.316 31.3136 159.222 31.0747 158.262 30.5969C157.321 30.1191 156.572 29.5076 156.016 28.7622V31.0556H152.732V9.84222H156.016V17.6109ZM165.664 23.0862C165.664 21.9969 165.433 21.0604 164.972 20.2769C164.531 19.4742 163.936 18.8722 163.187 18.4709C162.457 18.0504 161.67 17.8402 160.825 17.8402C160 17.8402 159.212 18.0504 158.464 18.4709C157.734 18.8913 157.139 19.5029 156.678 20.3056C156.236 21.1082 156.016 22.0542 156.016 23.1436C156.016 24.2329 156.236 25.1884 156.678 26.0102C157.139 26.8129 157.734 27.4244 158.464 27.8449C159.212 28.2653 160 28.4756 160.825 28.4756C161.67 28.4756 162.457 28.2653 163.187 27.8449C163.936 27.4053 164.531 26.7747 164.972 25.9529C165.433 25.1311 165.664 24.1756 165.664 23.0862ZM186.794 22.7709C186.794 23.3633 186.756 23.8984 186.679 24.3762H174.554C174.65 25.6376 175.121 26.6504 175.966 27.4149C176.81 28.1793 177.847 28.5616 179.076 28.5616C180.842 28.5616 182.09 27.8258 182.82 26.3542H186.362C185.882 27.8067 185.009 29.0011 183.742 29.9376C182.494 30.8549 180.938 31.3136 179.076 31.3136C177.559 31.3136 176.196 30.9791 174.986 30.3102C173.796 29.6222 172.855 28.6667 172.164 27.4436C171.492 26.2013 171.156 24.768 171.156 23.1436C171.156 21.5191 171.482 20.0953 172.135 18.8722C172.807 17.63 173.738 16.6744 174.929 16.0056C176.138 15.3367 177.521 15.0022 179.076 15.0022C180.574 15.0022 181.908 15.3271 183.079 15.9769C184.25 16.6267 185.162 17.544 185.815 18.7289C186.468 19.8947 186.794 21.242 186.794 22.7709ZM183.367 21.7389C183.348 20.5349 182.916 19.5698 182.071 18.8436C181.226 18.1173 180.18 17.7542 178.932 17.7542C177.799 17.7542 176.83 18.1173 176.023 18.8436C175.217 19.5507 174.737 20.5158 174.583 21.7389H183.367ZM196.304 23.1722L203.62 31.0556H199.184L193.309 24.2616V31.0556H190.026V9.84222H193.309V22.1689L199.069 15.2602H203.62L196.304 23.1722Z" fill="#F4C33F"/>
</svg>
